<svg width="220" height="97" viewBox="0 0 220 97" fill="none" xmlns="http://www.w3.org/2000/svg">
<g clip-path="url(#clip0_1_837)">
<path d="M73.04 46.8646C73.7558 46.9232 74.1664 46.3248 74.2236 45.6178L74.2881 44.8215L72.2172 44.6528C72.1806 44.9799 72.1482 45.2585 72.1292 45.4873C72.0486 46.4832 72.4914 46.8205 73.04 46.8646ZM141.277 37.4456C141.761 38.748 143.138 39.2701 144.43 38.7905C145.722 38.311 146.417 36.9968 145.935 35.6944C145.453 34.392 144.073 33.8713 142.781 34.351C141.489 34.8305 140.8 36.1447 141.277 37.4456ZM99.1026 81.5775C98.9384 82.1438 99.2919 82.6116 100.222 82.8816L101.614 83.285L102.147 81.4441L100.671 81.0145C99.8654 80.7795 99.2845 80.9544 99.1026 81.5775ZM98.6626 84.511C98.5087 85.039 98.8358 85.4878 99.594 85.7075L100.813 86.0611L101.331 84.2776L100.198 83.9475C99.44 83.7338 98.8386 83.883 98.6553 84.517L98.6626 84.511ZM117.636 14.8369L116.97 11.8934L115.29 14.3984C115.683 14.4585 116.076 14.5246 116.464 14.5978C116.851 14.6712 117.245 14.7504 117.636 14.8369ZM75.2796 53.3736L72.732 54.9957L75.6654 55.729C75.589 55.338 75.5191 54.9468 75.4556 54.5557C75.3866 54.1641 75.3295 53.7681 75.2796 53.3736ZM99.7334 17.342C101.053 16.9137 101.64 15.5585 101.2 14.2488C100.76 12.9391 99.4913 12.1954 98.1698 12.6178C96.8484 13.0402 96.2632 14.3999 96.7032 15.7111C97.1432 17.0223 98.4134 17.7718 99.7334 17.342ZM92.3678 78.7074C92.004 79.3278 92.2622 79.9323 93.063 80.4029L93.9752 80.9396L95.1486 78.9506L94.2186 78.4035C93.4384 77.9433 92.774 78.0269 92.3736 78.7074H92.3678ZM145.713 52.9321C144.376 52.696 143.092 53.4748 142.85 54.8388C142.609 56.2028 143.534 57.3527 144.891 57.5932C146.247 57.8337 147.513 57.0505 147.754 55.6865C147.994 54.3225 147.072 53.1712 145.713 52.9321ZM108.736 36.0552H115.887C115.705 34.6809 115.179 33.3111 114.327 32.28C112.687 30.2442 110.367 29.9055 108.841 29.9055H104.76V66.8274H108.736V53.048H113.925V66.8126H118.422V60.399C118.422 51.8718 115.694 47.2165 108.684 47.2165V45.1559H108.73C111.354 45.1559 113.212 43.8432 114.341 42.4293C115.626 40.8703 115.896 39.4007 115.955 38.0895H108.739L108.736 36.0552ZM110 5C85.6988 5 66 24.6988 66 49C66 73.3011 85.6988 93 110 93C134.301 93 154 73.3011 154 49C154 24.6988 134.301 5 110 5ZM148.824 43.3548L145.908 43.6276H145.893C145.989 44.2876 146.071 44.9476 146.133 45.6164C146.194 46.2852 146.239 46.9466 146.265 47.614H146.282L149.176 47.3426L149.235 48.5703L142.328 49.2185L142.298 47.9865L145.149 47.7196H145.176C145.151 47.0537 145.108 46.3849 145.046 45.722C144.985 45.0591 144.899 44.3932 144.803 43.7346H144.775L141.922 44.0016L141.725 42.7857L148.628 42.139L148.824 43.3548ZM146.999 35.3204C147.748 37.3341 146.743 39.3054 144.879 39.9976C143.015 40.6898 140.96 39.8334 140.212 37.8196C139.464 35.8058 140.469 33.8346 142.333 33.1424C144.197 32.4502 146.252 33.3066 146.999 35.3204ZM141.826 26.0496L139.396 27.6453L139.785 28.232L143.517 28.6544L144.269 29.8746L140.025 29.2719L139.293 31.5438C139.042 32.3431 139.043 32.8916 139.427 33.2246L138.534 33.8112C137.705 33.1116 137.801 32.0937 138.185 31.0407L138.905 28.9682L138.443 28.2628L136.026 29.8482L135.305 28.8524L141.083 25.0582L141.826 26.0496ZM130.412 21.9166L131.638 22.0852C131.556 22.4782 131.579 22.8859 131.705 23.2669C131.832 23.6479 132.057 23.9886 132.358 24.2544C133.247 25.0625 134.481 25.0434 135.391 24.3732C134.874 23.8438 134.341 23.326 133.794 22.8303C133.574 22.6294 133.354 22.4298 133.123 22.2348L133.838 21.409C134.068 21.6086 134.301 21.8153 134.528 22.0207C135.074 22.5178 135.608 23.0327 136.125 23.5622C136.711 22.5912 136.602 21.39 135.718 20.5863C135.431 20.3201 135.081 20.1316 134.7 20.0385C134.32 19.9453 133.922 19.9506 133.545 20.0538L133.273 18.8278C133.839 18.7111 134.424 18.7329 134.979 18.8912C135.535 19.0496 136.044 19.3397 136.463 19.737C138.053 21.1817 138.068 23.4228 136.745 24.8792C135.422 26.3356 133.204 26.5482 131.611 25.1036C131.164 24.7123 130.82 24.2167 130.611 23.6607C130.401 23.1047 130.332 22.5056 130.41 21.9166H130.412ZM124.91 16.4708C125.034 16.2228 125.229 16.0174 125.471 15.8805C125.712 15.7436 125.989 15.6814 126.265 15.7019C126.542 15.7223 126.806 15.8245 127.025 15.9954C127.244 16.1663 127.407 16.3982 127.493 16.6617C127.579 16.9253 127.586 17.2087 127.511 17.4758C127.437 17.743 127.284 17.982 127.074 18.1624C126.863 18.3429 126.603 18.4568 126.328 18.4896C126.052 18.5224 125.773 18.4726 125.526 18.3466C125.196 18.1792 124.946 17.8878 124.83 17.5363C124.714 17.1847 124.742 16.8016 124.909 16.4708H124.91ZM124.069 61.1735V69.0935H99.1349V27.8463H107.869C107.951 27.8463 108.016 27.8463 108.08 27.8463H110.197C114.379 27.8463 116.129 28.5796 118.117 30.1094C120.997 32.368 121.451 35.646 121.451 37.2872C121.451 39.3229 120.83 41.4716 119.303 43.2228C118.505 44.1791 117.288 45.4389 115.289 46.2617C121.625 48.5057 124.069 53.5965 124.069 61.1735ZM116.7 10.3475L117.819 10.5572L119.551 18.1384L118.253 17.7688L117.882 16.0176C117.347 15.89 116.804 15.7742 116.269 15.6729C115.733 15.5718 115.185 15.4838 114.641 15.4074L113.643 16.9064L112.336 16.7847L116.7 10.3475ZM104.233 16.088C104.365 16.1175 104.501 16.1274 104.636 16.1174C105.343 16.0646 105.967 15.5658 105.65 11.3918L105.628 11.113L105.546 10.0248L105.72 10.0043L108.36 9.80334C109.02 9.77546 109.68 9.76374 110.342 9.76814L110.425 10.8608L110.865 16.6263L109.641 16.7201L109.201 10.8681C108.511 10.8842 107.821 10.918 107.136 10.9708L106.784 11.0001L106.836 11.6631C107.174 16.0968 106.435 17.0442 105.06 17.1484C104.774 17.1636 104.488 17.1489 104.205 17.1044L104.233 16.088ZM97.856 11.5414C99.8991 10.8784 101.828 11.9638 102.442 13.8543C103.057 15.7448 102.115 17.763 100.072 18.4273C98.0291 19.0918 96.1019 18.0049 95.4873 16.1144C94.8728 14.2239 95.81 12.2014 97.8516 11.5369L97.856 11.5414ZM88.1056 16.4679L89.6133 18.9436L90.2206 18.5726L90.7632 14.859L92.007 14.1462L91.2736 18.3672L93.5206 19.171C94.3111 19.4496 94.8596 19.4642 95.2042 19.0903L95.7616 20.0025C95.037 20.8092 94.0207 20.6801 92.9749 20.2622L90.9216 19.476L90.2015 19.916L91.7078 22.3815L90.6898 23.0708L87.0936 17.1734L88.1056 16.4679ZM78.2423 26.0012L82.6878 29.8145C83.2128 29.0695 83.7662 28.3474 84.348 27.6482L79.9334 23.835C80.1954 23.521 80.4633 23.2111 80.737 22.905L85.1503 26.7184C85.7663 26.034 86.4106 25.373 87.0833 24.7354L82.6378 20.9222C82.9312 20.6356 83.2279 20.355 83.5281 20.0802L87.9751 23.92L88.8448 24.6724C86.5274 26.6868 84.509 29.0213 82.8505 31.6054L81.9866 30.8574L77.5338 27C77.7646 26.6666 77.9993 26.3342 78.2378 26.0026L78.2423 26.0012ZM75.5143 35.181C75.6175 34.924 75.7947 34.7033 76.0234 34.5469C76.2521 34.3905 76.522 34.3055 76.799 34.3025C77.076 34.2995 77.3477 34.3788 77.5797 34.5302C77.8117 34.6817 77.9936 34.8985 78.1023 35.1533C78.211 35.4082 78.2418 35.6895 78.1906 35.9618C78.1395 36.234 78.0087 36.485 77.8148 36.683C77.621 36.8809 77.3728 37.017 77.1017 37.0739C76.8306 37.1308 76.5486 37.106 76.2916 37.0026C75.9468 36.8646 75.6709 36.5955 75.5243 36.2543C75.3777 35.913 75.3725 35.5276 75.5098 35.1825L75.5143 35.181ZM70.9529 45.4624C70.9691 45.2644 71.1333 43.7332 71.2008 43.346L78.1176 43.9004L77.946 45.1383L75.438 44.9124L75.3676 45.7689L77.0103 47.1461C77.8257 47.834 77.9798 48.6583 77.7128 49.2273L76.6538 49.2479C76.8006 48.868 76.5746 48.3136 76.2462 48.0261L75.0288 46.9745C74.7824 47.5362 74.1239 48.2535 72.9286 48.1567C71.7332 48.0599 70.7945 47.3661 70.9485 45.4639L70.9529 45.4624ZM71.1935 54.6452L77.7334 50.455L77.8257 51.7999L76.3018 52.7415C76.3634 53.2886 76.4383 53.8385 76.5263 54.3812C76.6143 54.9239 76.714 55.4665 76.827 56.0048L78.5737 56.4448L78.9008 57.7149L71.3651 55.7775L71.1935 54.6452ZM77.0601 70.3534C76.8391 70.0101 76.6226 69.6636 76.4104 69.3132L81.6596 66.7099C81.1775 65.9354 80.7282 65.1439 80.3118 64.3355L75.0758 66.9094C74.89 66.5459 74.709 66.178 74.533 65.8064L79.7705 63.2325C79.3794 62.3973 79.0225 61.5463 78.6999 60.6789L73.4463 63.2795C73.2986 62.8991 73.1564 62.517 73.0194 62.1328L78.2994 59.538L79.3262 59.0305C80.2766 61.9502 81.6381 64.7197 83.3697 67.2554L82.3431 67.7615L77.0601 70.3534ZM81.0612 75.6935C80.6599 75.2781 80.3649 74.772 80.2015 74.2177C80.038 73.664 80.0109 73.0787 80.1225 72.5124L81.3502 72.7715C81.2507 73.1503 81.2494 73.5482 81.3461 73.928C81.4428 74.3074 81.6345 74.6561 81.9031 74.9409C82.8462 75.9586 84.3186 75.9176 85.3306 74.9808C86.3426 74.0434 86.4834 72.5649 85.5404 71.5471C85.2712 71.2498 84.928 71.0284 84.5456 70.9065C84.1634 70.7846 83.7556 70.7666 83.3639 70.8535L83.1834 69.6286C83.7721 69.5455 84.3721 69.6089 84.9302 69.8139C85.4882 70.0183 85.987 70.3578 86.3823 70.8021C87.8416 72.3785 87.6641 74.5829 86.2063 75.9351C84.7484 77.2874 82.5206 77.2742 81.0612 75.6935ZM86.3177 80.4324L90.3408 74.7124L91.3367 75.4131L87.3151 81.1331L86.3177 80.4324ZM93.2111 84.6427L92.1609 84.024L93.4369 81.8546L92.4821 81.2933C91.1298 80.4969 90.6121 79.2884 91.3279 78.075C92.0436 76.8621 93.365 76.6205 94.7599 77.4404L96.7575 78.6134L93.2111 84.6427ZM101.674 87.4019L99.1159 86.752C98.3473 86.529 97.8178 86.0994 97.545 85.6036C97.4385 85.4129 97.3727 85.2024 97.3517 84.9849C97.3308 84.7673 97.3552 84.5482 97.4233 84.341C97.6565 83.5354 98.2432 83.238 98.8167 83.1232C98.1082 82.6264 97.6932 82.0164 97.9631 81.0861C98.3106 79.8864 99.4855 79.53 100.983 79.9656L103.611 80.7297L101.674 87.4019ZM110.015 86.2213C109.738 86.2213 109.467 86.1387 109.236 85.9851C109.006 85.831 108.827 85.6124 108.721 85.3566C108.615 85.1002 108.587 84.8187 108.641 84.5471C108.695 84.2754 108.828 84.0256 109.024 83.83C109.22 83.6343 109.47 83.5009 109.741 83.4468C110.013 83.3927 110.295 83.4206 110.551 83.5266C110.807 83.6321 111.025 83.8119 111.179 84.042C111.333 84.2727 111.415 84.5433 111.415 84.8204C111.416 85.0046 111.381 85.1877 111.311 85.3582C111.241 85.5287 111.138 85.684 111.008 85.8146C110.878 85.9452 110.724 86.0491 110.553 86.1196C110.383 86.1907 110.2 86.2267 110.016 86.2267L110.015 86.2213ZM123.81 85.7075L122.266 80.9014L120.17 86.8783L119.01 87.1712L116.893 80.5669L118.067 80.2739L119.626 85.1254L121.734 79.0944L122.81 78.6544L124.936 85.2708L123.81 85.7075ZM132.112 81.4048L130.582 78.9331L129.978 79.307L129.458 83.0265L128.218 83.7469L128.933 79.5229L126.681 78.7309C125.889 78.4581 125.34 78.4374 124.997 78.8216L124.435 77.9126C125.155 77.1026 126.171 77.2261 127.213 77.6383L129.266 78.4128L129.983 77.9728L128.463 75.5142L129.476 74.819L133.116 80.6975L132.112 81.4048ZM140.153 74.0887L136.434 70.6742L137.574 76.9108L136.711 77.7421L131.595 73.0491L132.475 72.2129L136.228 75.6596L135.08 69.3663L135.799 68.4524L140.918 73.153L140.153 74.0887ZM145.964 64.6935C145.964 64.6935 141.229 64.177 140.445 63.9994L140.431 64.0289C141.017 64.5438 144.288 68.0872 144.288 68.0872L143.408 69.5904L136.931 66.8755L137.617 65.7643L140.246 66.9023C141.077 67.263 142.073 67.6926 142.927 68.1266L142.942 68.0976C142.283 67.5019 138.757 63.643 138.757 63.643L139.216 62.7132C139.216 62.7132 144.322 63.3265 145.193 63.5364L145.203 63.5156C144.397 63.0756 143.418 62.5476 142.584 62.0754L140.128 60.6778L140.568 59.4925L146.636 63.0565L145.964 64.6935ZM148.866 55.9021C148.494 58.017 146.63 59.2095 144.672 58.8648C142.714 58.5201 141.373 56.741 141.747 54.6261C142.122 52.5112 143.984 51.3174 145.942 51.6634C147.9 52.0096 149.235 53.7872 148.866 55.9021Z" fill="#0F2D69"/>
</g>
<defs>
<clipPath id="clip0_1_837">
<rect width="88" height="88" fill="white" transform="translate(66 5)"/>
</clipPath>
</defs>
</svg>
