<?xml version="1.0" standalone="no"?>
<!DOCTYPE svg PUBLIC "-//W3C//DTD SVG 20010904//EN"
 "http://www.w3.org/TR/2001/REC-SVG-20010904/DTD/svg10.dtd">
<svg version="1.0" xmlns="http://www.w3.org/2000/svg"
 width="864.000000pt" height="864.000000pt" viewBox="0 0 864.000000 864.000000"
 preserveAspectRatio="xMidYMid meet">
<metadata>
Created by potrace 1.14, written by Peter Selinger 2001-2017
</metadata>
<g transform="translate(0.000000,864.000000) scale(0.100000,-0.100000)"
fill="#000000" stroke="none">
<path d="M3018 8415 c-2 -2 -88 -6 -193 -9 -272 -7 -456 -17 -585 -31 -25 -2
-70 -7 -100 -10 -52 -6 -69 -8 -150 -19 -19 -3 -57 -8 -85 -12 -40 -5 -199
-37 -298 -59 -73 -17 -230 -68 -307 -102 -127 -54 -340 -176 -340 -194 0 -4
-8 -10 -18 -13 -57 -19 -309 -302 -367 -413 -11 -21 -22 -40 -25 -43 -23 -22
-117 -254 -155 -386 -27 -90 -30 -104 -41 -159 -9 -44 -12 -60 -14 -60 -1 0
-3 -9 -4 -20 -2 -11 -6 -35 -10 -53 -4 -18 -9 -49 -11 -70 -2 -20 -6 -46 -8
-57 -5 -23 -16 -101 -22 -165 -3 -25 -7 -63 -9 -85 -2 -22 -7 -76 -10 -120 -4
-44 -9 -109 -12 -145 -2 -36 -6 -109 -8 -163 -3 -54 -7 -101 -9 -104 -3 -2 -1
-17 3 -33 4 -16 6 -31 3 -34 -12 -11 -16 -441 -16 -1526 0 -1278 8 -1732 38
-2010 3 -25 7 -74 10 -110 8 -100 15 -160 30 -255 3 -22 8 -53 10 -70 2 -16 6
-39 8 -50 4 -19 19 -99 23 -120 1 -5 3 -12 4 -15 1 -3 4 -16 6 -30 2 -14 14
-59 25 -100 76 -270 160 -446 303 -635 31 -41 177 -189 231 -235 47 -40 194
-135 260 -168 60 -29 195 -87 230 -98 6 -2 48 -15 95 -30 77 -24 118 -34 190
-50 14 -2 32 -7 40 -9 8 -3 33 -7 55 -10 64 -10 84 -13 103 -19 9 -2 42 -7 73
-11 31 -3 67 -8 79 -10 12 -2 49 -7 83 -10 34 -3 78 -8 97 -10 19 -3 73 -7
120 -10 47 -3 114 -7 150 -10 162 -13 560 -23 983 -25 231 -1 305 -5 300 -13
-5 -8 -2 -8 8 0 21 17 482 16 472 -1 -4 -7 -2 -7 8 1 21 17 243 17 232 0 -5
-8 -2 -8 9 1 20 16 161 15 151 -2 -4 -6 0 -5 9 2 20 16 161 15 151 -2 -4 -7
-1 -6 8 1 11 9 99 13 330 13 476 2 1008 18 1149 35 19 2 67 7 105 10 267 24
475 58 650 107 39 11 75 21 80 22 114 30 324 121 435 188 113 70 285 221 365
322 103 131 230 355 246 434 0 4 5 14 9 23 12 21 80 248 85 279 2 14 10 54 19
90 8 36 17 82 20 103 3 20 9 54 12 75 3 20 7 47 9 60 2 13 7 53 11 90 3 37 8
76 11 87 2 11 6 45 8 75 2 30 6 89 9 130 9 108 16 233 21 404 3 82 8 152 11
157 3 5 0 9 -6 9 -6 0 -8 5 -4 12 11 18 14 271 14 1363 0 1417 -9 1782 -56
2200 -3 28 -7 64 -8 80 -3 35 -17 131 -22 160 -2 10 -6 37 -9 60 -14 91 -68
308 -106 420 -40 118 -119 288 -159 344 -11 16 -20 32 -20 35 0 3 -6 14 -14
23 -8 10 -35 45 -60 78 -45 60 -129 150 -200 214 -64 57 -235 173 -256 173 -3
0 -16 8 -30 18 -43 29 -231 106 -335 136 -88 25 -111 31 -155 40 -14 3 -33 7
-42 10 -20 6 -43 10 -94 18 -22 4 -46 8 -54 11 -8 2 -37 7 -65 10 -27 4 -59 9
-70 10 -11 2 -42 6 -70 9 -27 4 -66 8 -85 11 -92 11 -283 25 -585 41 -106 6
-2891 14 -2897 9z"/>
</g>
</svg>
