<svg width="52" height="52" viewBox="0 0 52 52" fill="none" xmlns="http://www.w3.org/2000/svg">
<path fill-rule="evenodd" clip-rule="evenodd" d="M26 52C40.3594 52 52 40.3594 52 26C52 11.6406 40.3594 0 26 0C11.6406 0 0 11.6406 0 26C0 40.3594 11.6406 52 26 52ZM26.4025 13.2979C26.3845 13.2739 26.6662 11.1167 26.7081 10.9849C26.7441 10.889 26.8459 10.895 27.595 11.0328C29.3327 11.3504 31.2023 12.0156 32.7363 12.8665C36.8769 15.1555 39.8909 18.9186 41.1792 23.4067C41.4129 24.2157 41.6406 25.2703 41.5927 25.3182C41.5627 25.3482 39.4715 25.7137 39.3217 25.7137C39.2378 25.7137 39.1958 25.6178 39.1119 25.2463C38.4648 22.2442 37.0926 19.7155 34.9414 17.5703C32.7722 15.4131 30.0278 13.969 27.0437 13.4297C26.7021 13.3698 26.4145 13.3099 26.4025 13.2979ZM15.2809 13.9627C14.8135 14.1484 14.4959 14.43 12.9859 15.958C11.4878 17.4741 11.356 17.6419 11.0984 18.4029C10.9306 18.8942 10.8647 20.3323 10.9725 21.1053C11.2901 23.3165 12.5964 26.3725 14.3701 29.0749C16.9587 33.0118 20.5361 36.4513 24.4909 38.7883C27.0855 40.3223 29.3206 41.2091 31.322 41.5087C32.1309 41.6286 33.5571 41.5986 34.0065 41.4488C34.8454 41.1792 35.0192 41.0473 36.5831 39.4954C37.4041 38.6864 38.1591 37.8895 38.2669 37.7277C38.5606 37.2783 38.6804 36.8708 38.6504 36.3614C38.6145 35.5645 38.5546 35.4866 36.1217 33.0418C34.1263 31.0404 33.9286 30.8606 33.5391 30.6749C33.1676 30.5011 33.0597 30.4771 32.6103 30.4771C32.1489 30.4771 32.059 30.4951 31.6815 30.6809C31.316 30.8606 31.0763 31.0703 29.8779 32.2568C28.8712 33.2575 28.4577 33.623 28.3559 33.623C28.278 33.623 27.8825 33.4492 27.475 33.2335C25.8871 32.4006 24.5808 31.4059 22.9869 29.818C21.0634 27.9065 19.787 26.2346 19.0979 24.7246C18.9841 24.467 18.8882 24.1913 18.8882 24.1074C18.8882 23.9876 19.1758 23.658 20.2304 22.5974C20.9675 21.8544 21.6386 21.1353 21.7225 21.0035C22.118 20.3623 22.1539 19.6373 21.8184 18.9422C21.6506 18.5946 21.381 18.307 19.4635 16.3895C16.9707 13.9027 16.9527 13.8907 16.0719 13.8608C15.6824 13.8548 15.4966 13.8788 15.2809 13.9627ZM26.1206 19.4217C26.0966 19.3978 26.1506 18.8465 26.2404 18.1993L26.4082 17.0189L26.7078 17.0548C26.8696 17.0788 27.2591 17.1627 27.5647 17.2406C31.0102 18.1094 33.8266 20.6921 34.9711 24.0477C35.1568 24.581 35.4504 25.7255 35.4085 25.7435C35.3785 25.7615 33.1135 26.133 33.0536 26.133C33.0176 26.133 32.9517 25.9712 32.9157 25.7675C32.5263 23.79 31.1301 21.7826 29.3564 20.6621C28.5295 20.1348 27.4149 19.6794 26.576 19.5356C26.3543 19.4936 26.1446 19.4457 26.1206 19.4217Z" fill="white"/>
</svg>
